<?xml version="1.0" encoding="iso-8859-1"?>
<!-- Generator: Adobe Illustrator 19.0.0, SVG Export Plug-In . SVG Version: 6.00 Build 0)  -->
<svg version="1.1" id="Layer_1" xmlns="http://www.w3.org/2000/svg" xmlns:xlink="http://www.w3.org/1999/xlink" x="0px" y="0px"
	 viewBox="0 0 511.999 511.999" style="enable-background:new 0 0 511.999 511.999;" xml:space="preserve">
<g>
	<path style="fill:#F1F2F2;" d="M376.19,240.182c8.814,0,16.026,7.211,16.026,16.026c0,8.814-7.211,16.026-16.026,16.026
		c-8.814,0-16.026-7.211-16.026-16.026S367.375,240.182,376.19,240.182z"/>
	<path style="fill:#F1F2F2;" d="M312.085,176.076c8.814,0,16.026,7.211,16.026,16.026s-7.211,16.026-16.026,16.026
		c-8.814,0-16.026-7.211-16.026-16.026S303.271,176.076,312.085,176.076z"/>
	<rect x="95.733" y="320.315" style="fill:#F1F2F2;" width="104.166" height="32.053"/>
</g>
<path style="fill:#D1D3D4;" d="M456.321,119.985v24.04H504.4v224.367h-48.079v24.04H239.967V119.985H456.321z M392.216,256.208
	c0-8.814-7.211-16.026-16.026-16.026c-8.814,0-16.026,7.211-16.026,16.026c0,8.814,7.211,16.026,16.026,16.026
	C385.004,272.234,392.216,265.022,392.216,256.208z M328.111,192.103c0-8.814-7.211-16.026-16.026-16.026
	c-8.814,0-16.026,7.211-16.026,16.026s7.212,16.026,16.026,16.026C320.9,208.129,328.111,200.918,328.111,192.103z"/>
<path style="fill:#36C63F;" d="M55.665,368.392H7.587V144.025h48.079v-24.04h184.302v272.446H55.665V368.392z M199.901,352.365
	v-32.053H95.731v32.053H199.901z"/>
<path style="fill:#231F20;" d="M463.921,136.223v-24.04H48.079v24.04H0v239.553h48.079v24.04h415.842v-24.04h48.078V136.223H463.921
	z M232.38,384.629H63.265v-104.59H48.079v80.552H15.186V151.409h48.079v-24.04H232.38V384.629z M496.814,360.591h-48.078v24.04
	h-201.17V127.37h201.169v104.59h15.186v-80.551h32.892v209.182H496.814z"/>
<rect x="48.079" y="247.988" style="fill:#FFFFFF;" width="15.186" height="16.026"/>
<rect x="48.079" y="215.936" style="fill:#231F20;" width="15.186" height="16.026"/>
<g>
	<rect x="48.079" y="183.883" style="fill:#FFFFFF;" width="15.186" height="16.026"/>
	<rect x="448.738" y="247.988" style="fill:#FFFFFF;" width="15.186" height="16.026"/>
</g>
<rect x="448.738" y="280.041" style="fill:#231F20;" width="15.186" height="16.026"/>
<rect x="448.738" y="312.094" style="fill:#FFFFFF;" width="15.186" height="16.026"/>
<g>
	
		<rect x="276.159" y="216.355" transform="matrix(0.7071 -0.7071 0.7071 0.7071 -57.5553 308.9447)" style="fill:#231F20;" width="135.985" height="15.186"/>
	<path style="fill:#231F20;" d="M312.091,215.514c13.024,0,23.619-10.596,23.619-23.619s-10.596-23.619-23.619-23.619
		c-13.023,0-23.618,10.596-23.618,23.619C288.472,204.919,299.068,215.514,312.091,215.514z M312.091,183.462
		c4.65,0,8.433,3.783,8.433,8.433c0,4.65-3.783,8.433-8.433,8.433s-8.432-3.783-8.432-8.433
		C303.658,187.245,307.442,183.462,312.091,183.462z"/>
	<path style="fill:#231F20;" d="M376.197,232.38c-13.024,0-23.619,10.596-23.619,23.619s10.596,23.619,23.619,23.619
		c13.023,0,23.618-10.596,23.618-23.619C399.816,242.976,389.22,232.38,376.197,232.38z M376.197,264.433
		c-4.65,0-8.433-3.783-8.433-8.433c0-4.65,3.783-8.433,8.433-8.433s8.432,3.783,8.432,8.433
		C384.629,260.649,380.847,264.433,376.197,264.433z"/>
</g>
<rect x="272.023" y="312.509" style="fill:#FFFFFF;" width="144.237" height="15.186"/>
<rect x="272.023" y="344.562" style="fill:#231F20;" width="16.026" height="15.186"/>
<g>
	<rect x="304.076" y="344.562" style="fill:#FFFFFF;" width="16.025" height="15.186"/>
	<rect x="400.234" y="344.562" style="fill:#FFFFFF;" width="16.026" height="15.186"/>
	<rect x="87.725" y="280.456" style="fill:#FFFFFF;" width="16.026" height="15.186"/>
</g>
<rect x="119.778" y="280.456" style="fill:#231F20;" width="16.026" height="15.186"/>
<g>
	<rect x="191.891" y="280.456" style="fill:#FFFFFF;" width="16.026" height="15.186"/>
	<rect x="87.725" y="152.245" style="fill:#FFFFFF;" width="120.193" height="15.186"/>
	<rect x="87.725" y="216.351" style="fill:#FFFFFF;" width="120.193" height="15.186"/>
</g>
<g>
	<rect x="87.725" y="248.403" style="fill:#231F20;" width="120.193" height="15.186"/>
	<rect x="87.725" y="184.298" style="fill:#231F20;" width="88.14" height="15.186"/>
	<rect x="191.891" y="184.298" style="fill:#231F20;" width="16.026" height="15.186"/>
	<path style="fill:#231F20;" d="M88.144,359.75H207.5v-47.239H88.144V359.75z M103.33,327.698h88.984v16.867H103.33
		C103.33,344.565,103.33,327.698,103.33,327.698z"/>
</g>
<g>
</g>
<g>
</g>
<g>
</g>
<g>
</g>
<g>
</g>
<g>
</g>
<g>
</g>
<g>
</g>
<g>
</g>
<g>
</g>
<g>
</g>
<g>
</g>
<g>
</g>
<g>
</g>
<g>
</g>
</svg>
