<?xml version="1.0"?>
<svg xmlns="http://www.w3.org/2000/svg" viewBox="0 0 64 64" width="512" height="512"><g id="Package-2" data-name="Package"><polygon points="3 14 3 50 32 61.14 32 25 3 14" style="fill:#e5cbaa"/><polygon points="32 25 32 61.14 61 50.1 61 14 32 25" style="fill:#ffe7c9"/><polygon points="3 14 32 25 61 14 32 3 3 14" style="fill:#ffe2bd"/><polygon points="21 37.91 21.227 20.914 14 18.172 14 35.23 21 37.91" style="fill:#ffaf46"/><polygon points="36.14 15.26 28.68 12.43 14 18.172 21.227 20.914 36.14 15.26" style="fill:#ffaf46"/><path d="M61.354,13.065l-29-11a.993.993,0,0,0-.708,0l-29,11A1,1,0,0,0,2,14V50a1,1,0,0,0,.642.934l29,11.14a1,1,0,0,0,.713,0l29-11.04A1,1,0,0,0,62,50.1V14A1,1,0,0,0,61.354,13.065ZM32,4.069,58.181,14,32,23.931l-7.953-3.017L36.494,16.2a1,1,0,0,0,0-1.87l-7.46-2.83a1,1,0,0,0-.709,0L13.773,17.017,5.819,14ZM15,19.621l5,1.9V36.457l-5-1.915Zm1.592-1.535L28.68,13.5l4.639,1.76L21.227,19.844ZM4,15.449l9,3.414V35.23a1,1,0,0,0,.643.934l7,2.68A1,1,0,0,0,22,37.91V22.276l9,3.414V59.684L4,49.313Zm29,44.24v-34L60,15.449V49.411Z"/><path d="M42.643,50.019l-6.014,2.289a1,1,0,0,0,.355,1.935.988.988,0,0,0,.356-.066l6.014-2.289a1,1,0,1,0-.711-1.869Z"/><path d="M48.637,47.737l-2.013.766a1,1,0,0,0,.355,1.935.988.988,0,0,0,.356-.066l2.013-.766a1,1,0,1,0-.711-1.869Z"/><path d="M42.643,46.019l-6.014,2.289a1,1,0,0,0,.355,1.935.988.988,0,0,0,.356-.066l6.014-2.289a1,1,0,1,0-.711-1.869Z"/><path d="M48.637,43.737l-2.013.766a1,1,0,0,0,.355,1.935.988.988,0,0,0,.356-.066l2.013-.766a1,1,0,1,0-.711-1.869Z"/><path d="M42.643,42.019l-6.014,2.289a1,1,0,0,0,.355,1.935.988.988,0,0,0,.356-.066l6.014-2.289a1,1,0,1,0-.711-1.869Z"/><path d="M48.637,39.737l-2.013.766a1,1,0,0,0,.355,1.935.988.988,0,0,0,.356-.066l2.013-.766a1,1,0,1,0-.711-1.869Z"/></g></svg>
