<?xml version="1.0"?>
<svg xmlns="http://www.w3.org/2000/svg" viewBox="0 0 64 64" width="512" height="512"><g id="shopping-gift_box-celebration-surprise" data-name="shopping-gift box-celebration-surprise"><rect x="7" y="19" width="40" height="42" style="fill:#c0ab91"/><rect x="26" y="38" width="30" height="19" style="fill:#ffda44"/><polygon points="44 26 44 28 43 32 39 32 38 28 38 26 44 26" style="fill:#d80027"/><rect x="23" y="32" width="36" height="6" style="fill:#ff9811"/><rect x="37" y="32" width="8" height="6" style="fill:#a2001d"/><polygon points="47 25.86 51 23 54 28 51 32 45 32 43 32 44 28 47 25.86" style="fill:#ea348b"/><polygon points="38 28 39 32 37 32 31 32 28 28 31 23 38 28" style="fill:#ea348b"/><rect x="5" y="11" width="44" height="8" style="fill:#806749"/><rect x="26" y="38" width="30" height="2" style="fill:#dfbf3c"/><rect x="38" y="38" width="6" height="19" style="fill:#d80027"/><rect x="7" y="19" width="40" height="2" style="fill:#b39a7c"/><rect x="5" y="11" width="44" height="3" style="fill:#c0ab91"/><path d="M59,31H53l1.8-2.4a1,1,0,0,0,.057-1.115l-3-5a1,1,0,0,0-1.438-.3L48,23.914V20h1a1,1,0,0,0,1-1V11a1,1,0,0,0-1-1H38V3a1,1,0,0,0-1-1H17a1,1,0,0,0-1,1v7H5a1,1,0,0,0-1,1v8a1,1,0,0,0,1,1H6V61a1,1,0,0,0,1,1H47a1,1,0,0,0,1-1V58h8a1,1,0,0,0,1-1V39h2a1,1,0,0,0,1-1V32A1,1,0,0,0,59,31Zm-8.3-6.557,2.1,3.495L50.5,31H44.281l.6-2.4ZM39,56V39h4V56ZM29.2,27.938l2.1-3.495L37.119,28.6l.6,2.4H31.5Zm9.8-.061V27h4v.877L42.219,31H39.781ZM36,33v4H24V33ZM27,48h4V46H27V39H37V56H27ZM38,37V33h6v4ZM48,12v6H39.816A3,3,0,0,0,38,16.184V12ZM19.816,18A3,3,0,0,0,18,16.184V12H36v4.184A3,3,0,0,0,34.184,18ZM18,4H36v6H18Zm-2,8v4.184A3,3,0,0,0,14.184,18H6V15H9V13H6V12ZM46,60H8V58h5V56H8V20h6.184a2.982,2.982,0,0,0,5.632,0H34.184a2.982,2.982,0,0,0,5.632,0H46v5.342l-1,.715V26a1,1,0,0,0-1-1H38a1,1,0,0,0-1,1v.057l-5.419-3.871a1,1,0,0,0-1.438.3l-3,5A1,1,0,0,0,27.2,28.6L29,31H23a1,1,0,0,0-1,1v6a1,1,0,0,0,1,1h2V57a1,1,0,0,0,1,1H46Zm9-14H51v2h4v8H45V39H55Zm3-9H46V33H58Z" style="fill:#231f20"/><rect x="15" y="56" width="2" height="2" style="fill:#231f20"/><rect x="33" y="46" width="2" height="2" style="fill:#231f20"/><rect x="47" y="46" width="2" height="2" style="fill:#231f20"/></g></svg>
