<svg height="423pt" viewBox="0 -44 423.25675 423" width="423pt" xmlns="http://www.w3.org/2000/svg"><path d="m344.457031 116.847656c.105469-1.933594.292969-3.832031.292969-5.789062 0-57.488282-46.613281-104.105469-104.109375-104.105469-48.929687 0-89.867187 33.8125-101.003906 79.308594-8.761719-10.882813-22.171875-17.867188-37.234375-17.867188-26.394532 0-47.785156 21.394531-47.785156 47.789063 0 2.464844.246093 4.867187.605468 7.222656-28.511718 12.820312-48.394531 41.414062-48.394531 74.695312 0 45.242188 36.679687 81.917969 81.921875 81.917969h245.761719c45.234375 0 81.917969-36.675781 81.917969-81.917969 0-41.867187-31.433594-76.339843-71.972657-81.253906" fill="#55a6ff"/><path d="m344.457031 116.847656 6.816407.378906c.089843-1.742187.296874-3.773437.300781-6.164062-.003907-61.261719-49.664063-110.929688-110.933594-110.933594-52.152344.011719-95.769531 36.015625-107.636719 84.511719l6.632813 1.621094 5.316406-4.277344c-9.980469-12.421875-25.351563-20.417969-42.550781-20.417969-30.167969.003906-54.609375 24.445313-54.613282 54.617188 0 2.921875.292969 5.667968.683594 8.253906l6.75-1.03125-2.800781-6.222656c-30.875 13.875-52.4140625 44.863281-52.421875 80.921875.0078125 49.011719 39.734375 88.742187 88.75 88.742187h245.761719c49.007812 0 88.738281-39.730468 88.746093-88.742187-.011718-45.367188-34.039062-82.710938-77.980468-88.03125l-.820313 6.773437 6.816407.378906-6.816407-.378906-.824219 6.78125c37.144532 4.496094 65.984376 36.105469 65.96875 74.476563 0 20.75-8.394531 39.484375-21.992187 53.09375-13.617187 13.601562-32.34375 21.992187-53.097656 22h-245.761719c-20.757812-.007813-39.488281-8.398438-53.097656-22-13.601563-13.613281-21.996094-32.34375-22-53.09375-.003906-30.507813 18.21875-56.703125 44.367187-68.46875 2.800781-1.261719 4.410157-4.21875 3.949219-7.257813-.324219-2.136718-.527344-4.1875-.527344-6.195312.003906-11.335938 4.574219-21.53125 11.996094-28.964844 7.433594-7.421875 17.628906-11.992188 28.964844-11.996094 12.921875.003906 24.378906 5.96875 31.914062 15.320313 1.625 2.019531 4.273438 2.949219 6.800782 2.382812 2.527343-.5625 4.53125-2.523437 5.148437-5.039062 10.417969-42.507813 48.664063-74.117188 94.375-74.105469 26.882813.003906 51.160156 10.878906 68.785156 28.492188 17.617188 17.628906 28.492188 41.90625 28.496094 68.785156.003906 1.519531-.160156 3.285156-.28125 5.414062-.199219 3.59375 2.417969 6.71875 5.992187 7.152344z" fill="#54596e"/><path d="m409.226562 190.535156c-12.769531 28.585938-41.378906 48.527344-74.714843 48.527344h-245.761719c-33.335938 0-61.953125-19.941406-74.71875-48.523438-.25 2.488282-.378906 5.007813-.378906 7.5625.003906 20.753907 8.398437 39.484376 22 53.09375 13.609375 13.601563 32.339844 21.992188 53.097656 22h245.761719c20.753906-.007812 39.480469-8.398437 53.097656-22 13.597656-13.609374 21.988281-32.339843 21.992187-53.09375 0-2.554687-.125-5.078124-.375-7.566406" fill="#5597e2"/><g fill="#54596e"><path d="m9.496094 177.542969c-1.707032 6.570312-2.667969 13.445312-2.667969 20.558593 0 45.242188 36.679687 81.917969 81.921875 81.917969h245.761719c45.234375 0 81.917969-36.675781 81.917969-81.917969 0-7.105468-.972657-13.964843-2.671876-20.535156-1.152343 4.484375-2.675781 8.816406-4.53125 12.972656.25 2.488282.375 5.011719.375 7.566407 0 20.75-8.394531 39.484375-21.992187 53.09375-13.617187 13.601562-32.34375 21.992187-53.097656 22h-245.761719c-20.757812-.007813-39.488281-8.398438-53.097656-22-13.601563-13.613281-21.996094-32.34375-22-53.09375 0-2.554688.128906-5.078125.378906-7.566407-1.859375-4.164062-3.382812-8.503906-4.535156-12.996093"/><path d="m232.648438 117.484375c-2.089844 4.921875-6.953126 8.382813-12.632813 8.378906-5.429687.003907-10.097656-3.148437-12.335937-7.722656-1.652344-3.390625-5.738282-4.796875-9.125-3.148437-3.390626 1.648437-4.800782 5.734374-3.148438 9.125 4.425781 9.117187 13.796875 15.394531 24.609375 15.394531 11.332031-.003907 21.058594-6.886719 25.203125-16.703125 1.472656-3.46875-.152344-7.476563-3.621094-8.945313-3.472656-1.472656-7.480468.152344-8.949218 3.621094zm0 0"/><path d="m123.421875 117.484375c-2.089844 4.921875-6.953125 8.382813-12.632813 8.378906-5.429687.003907-10.097656-3.148437-12.335937-7.722656-1.652344-3.390625-5.738281-4.796875-9.125-3.148437-3.390625 1.648437-4.800781 5.734374-3.148437 9.125 4.425781 9.117187 13.796874 15.394531 24.609374 15.394531 11.332032-.003907 21.058594-6.886719 25.203126-16.703125 1.472656-3.46875-.152344-7.476563-3.625-8.945313-3.46875-1.472656-7.476563.152344-8.945313 3.621094zm0 0"/><path d="m224.855469 165.488281c5.519531-.011719 8.960937 6.660157 6.378906 12.199219-11.886719 25.480469-35.492187 42.839844-62.679687 42.839844-27.066407 0-50.59375-17.21875-62.527344-42.523438-2.605469-5.519531.8125-12.214844 6.332031-12.226562zm0 0"/><path d="m224.855469 165.488281v6.824219-.246094l-.109375.21875.109375.027344v-.246094l-.109375.21875.046875.039063c.160156.121093.503906.753906.488281 1.417969l-.238281 1.070312c-5.457031 11.699219-13.582031 21.464844-23.316407 28.25-9.746093 6.792969-21.042968 10.632812-33.171874 10.636719-12.074219-.003907-23.324219-3.816407-33.042969-10.554688-9.707031-6.734375-17.824219-16.425781-23.308594-28.054687l-.238281-1.0625.429687-1.359375.097657-.097657.011718-.007812-.132812-.238281v.273437l.132812-.035156-.136718-.238281v.273437l112.503906-.285156h-.019532v-6.824219l-.015624-6.824219-112.492188.285157c-4.277344-.019531-8.082031 2.109375-10.410156 4.949219-2.375 2.847656-3.609375 6.394531-3.625 10.132812 0 2.28125.488281 4.652344 1.542968 6.882812 6.449219 13.675782 16.0625 25.246094 27.867188 33.449219 11.796875 8.199219 25.839844 12.996094 40.832031 12.992188 15.058594.003906 29.15625-4.832031 40.984375-13.09375 11.839844-8.261719 21.457032-19.917969 27.882813-33.6875 1.039062-2.230469 1.515625-4.574219 1.511719-6.828125-.011719-3.746094-1.257813-7.296875-3.636719-10.148438-2.339844-2.839844-6.15625-4.960937-10.441407-4.933594h-.015624zm0 0"/></g><path d="m373.640625 217.242188c-6.40625 6.207031-16.757813 5.867187-23.570313.101562l-15.5625-13.167969v106.566407c0 9.425781-7.640624 17.066406-17.066406 17.066406-9.425781 0-17.066406-7.640625-17.066406-17.066406v-106.566407l-15.558594 13.167969c-6.8125 5.765625-17.167968 6.105469-23.574218-.101562-7.371094-7.148438-6.832032-18.878907.800781-25.339844l44.375-37.546875c3.183593-2.695313 7.105469-4.039063 11.027343-4.039063 3.917969 0 7.839844 1.34375 11.023438 4.039063l44.375 37.546875c7.632812 6.457031 8.171875 18.191406.796875 25.339844zm0 0" fill="#9af43b"/><path d="m373.640625 217.242188-4.746094-4.90625c-1.800781 1.738281-4.128906 2.601562-6.757812 2.617187-2.664063.007813-5.492188-.980469-7.660157-2.824219l-15.558593-13.164062c-2.027344-1.71875-4.875-2.101563-7.28125-.984375-2.410157 1.117187-3.953125 3.539062-3.953125 6.195312v106.566407c-.011719 5.652343-4.585938 10.226562-10.242188 10.238281-5.652344-.011719-10.230468-4.585938-10.238281-10.238281v-106.566407c0-2.65625-1.546875-5.078125-3.957031-6.195312-2.40625-1.117188-5.253906-.734375-7.28125.984375l-15.558594 13.164062c-2.167969 1.84375-4.992188 2.828125-7.660156 2.824219-2.625-.015625-4.957032-.882813-6.757813-2.617187-2.15625-2.105469-3.144531-4.722657-3.160156-7.40625.007813-2.9375 1.21875-5.785157 3.617187-7.8125l44.378907-37.550782c1.925781-1.625 4.253906-2.421875 6.617187-2.425781 2.363282.003906 4.691406.800781 6.621094 2.429687l44.371094 37.542969c2.402344 2.035157 3.609375 4.882813 3.621094 7.820313-.015626 2.679687-1 5.296875-3.167969 7.410156l9.507812 9.796875c4.878907-4.722656 7.324219-11.027344 7.308594-17.207031.011719-6.757813-2.882813-13.535156-8.453125-18.242188l-44.375-37.546875c-4.445312-3.761719-9.957031-5.660156-15.433594-5.65625-5.476562-.003906-10.992187 1.894531-15.433594 5.652344l-44.378906 37.550781c-5.570312 4.703125-8.464844 11.484375-8.457031 18.242188-.011719 6.183594 2.433594 12.492187 7.316406 17.210937 4.542969 4.40625 10.492188 6.476563 16.257813 6.460938 5.894531-.003907 11.761718-2.070313 16.476562-6.050781l4.324219-3.660157v91.847657c0 13.199218 10.691406 23.890624 23.890625 23.894531 13.199219-.003907 23.890625-10.695313 23.894531-23.894531v-91.847657l4.324219 3.660157c4.710938 3.976562 10.570312 6.046874 16.472656 6.054687 5.765625.015625 11.714844-2.054687 16.257813-6.460937zm0 0" fill="#54596e"/></svg>